<svg width="35" height="36" viewBox="0 0 35 36" fill="none" xmlns="http://www.w3.org/2000/svg">
<path d="M17.5 3.05212C14.5436 3.05212 11.6535 3.9288 9.19537 5.5713C6.7372 7.2138 4.82128 9.54835 3.68991 12.2797C2.55854 15.0111 2.26252 18.0166 2.83929 20.9162C3.41606 23.8158 4.83971 26.4793 6.93021 28.5698C9.02072 30.6603 11.6842 32.084 14.5838 32.6607C17.4834 33.2375 20.4889 32.9415 23.2203 31.8101C25.9517 30.6787 28.2862 28.7628 29.9287 26.3047C31.5712 23.8465 32.4479 20.9565 32.4479 18C32.444 14.0368 30.8679 10.237 28.0655 7.43453C25.2631 4.63209 21.4632 3.05598 17.5 3.05212ZM18.5937 26.3855V27.5375C18.5937 27.8276 18.4785 28.1058 18.2734 28.3109C18.0683 28.5161 17.7901 28.6313 17.5 28.6313C17.2099 28.6313 16.9317 28.5161 16.7266 28.3109C16.5215 28.1058 16.4062 27.8276 16.4062 27.5375V26.3855C15.4559 26.2434 14.5656 25.8337 13.8396 25.2042C13.3213 24.7697 12.8946 24.2365 12.5841 23.6357C12.2737 23.0349 12.0857 22.3783 12.0312 21.7042C12.0128 21.4887 12.0586 21.2726 12.1629 21.0832C12.2673 20.8938 12.4254 20.7395 12.6174 20.64C12.8094 20.5404 13.0265 20.4999 13.2415 20.5238C13.4564 20.5476 13.6595 20.6346 13.825 20.7738C14.0482 20.9596 14.1896 21.2256 14.2187 21.5146C14.2466 21.9047 14.3527 22.2851 14.5305 22.6333C14.7084 22.9816 14.9545 23.2905 15.2542 23.5417C15.8568 24.0569 16.6357 24.3182 17.4271 24.2709C19.7021 24.2709 20.7812 23.3959 20.7812 21.6167C20.7812 20.4355 19.7458 19.1667 17.5 19.1667C12.7458 19.1667 12.0312 16.25 12.0312 14.573C12.0701 13.5271 12.4295 12.5185 13.0608 11.6838C13.6921 10.849 14.5647 10.2285 15.5604 9.90629C15.8375 9.82074 16.1194 9.75754 16.4062 9.71671V8.57921C16.4062 8.28913 16.5215 8.01093 16.7266 7.80581C16.9317 7.60069 17.2099 7.48546 17.5 7.48546C17.7901 7.48546 18.0683 7.60069 18.2734 7.80581C18.4785 8.01093 18.5937 8.28913 18.5937 8.57921V9.76046C19.7386 9.9514 20.7883 10.5154 21.5796 11.3646C22.3708 12.2138 22.8592 13.3008 22.9687 14.4563C22.9807 14.7353 22.8856 15.0082 22.7028 15.2193C22.52 15.4304 22.2634 15.5635 21.9856 15.5915C21.7077 15.6195 21.4297 15.5401 21.2085 15.3697C20.9873 15.1993 20.8397 14.9508 20.7958 14.675C20.7148 13.8836 20.3345 13.153 19.7327 12.6326C19.131 12.1121 18.3532 11.8412 17.5583 11.875H17.2958C16.9406 11.8722 16.5868 11.9214 16.2458 12.0209C15.8727 12.1426 15.5279 12.3383 15.2322 12.5965C14.9366 12.8546 14.696 13.1697 14.525 13.523C14.3496 13.8725 14.2502 14.2552 14.2333 14.6459C14.2333 15.8417 14.6271 17.0084 17.5146 17.0084C21.1021 17.0084 22.9833 19.3417 22.9833 21.6459C23.0027 22.2463 22.9027 22.8447 22.6889 23.4061C22.4752 23.9676 22.152 24.481 21.7382 24.9165C21.3244 25.3521 20.8281 25.701 20.2783 25.9432C19.7285 26.1853 19.1361 26.3158 18.5354 26.3271L18.5937 26.3855Z" fill="black"/>
</svg>
