<svg width="35" height="36" viewBox="0 0 35 36" fill="none" xmlns="http://www.w3.org/2000/svg">
<path d="M17.5 31.8541C21.1744 31.8541 24.6982 30.3945 27.2964 27.7963C29.8945 25.1981 31.3542 21.6743 31.3542 17.9999C31.3542 14.3256 29.8945 10.8017 27.2964 8.20354C24.6982 5.60538 21.1744 4.14575 17.5 4.14575C13.8257 4.14575 10.3018 5.60538 7.70363 8.20354C5.10547 10.8017 3.64584 14.3256 3.64584 17.9999C3.64584 21.6743 5.10547 25.1981 7.70363 27.7963C10.3018 30.3945 13.8257 31.8541 17.5 31.8541Z" stroke="black" stroke-width="1.5" stroke-linecap="round" stroke-linejoin="round"/>
<path d="M13.125 21.548C13.218 22.6213 13.7285 23.6152 14.5466 24.316C15.3647 25.0169 16.4252 25.3687 17.5 25.296C21.0292 25.296 21.875 23.2689 21.875 21.548C21.875 19.8272 20.4167 18.0043 17.5 18.0043C14.5833 18.0043 13.125 16.8522 13.125 14.5043C13.1522 13.9641 13.2884 13.4351 13.5253 12.9489C13.7623 12.4628 14.0951 12.0295 14.5038 11.6753C14.9125 11.3211 15.3886 11.0533 15.9035 10.8878C16.4184 10.7224 16.9615 10.6628 17.5 10.7126C18.5755 10.6663 19.628 11.0333 20.4416 11.7384C21.2551 12.4435 21.768 13.4331 21.875 14.5043M17.5 27.4791V25.5833M17.5 8.52075V10.7068" stroke="black" stroke-width="1.5" stroke-linecap="round" stroke-linejoin="round"/>
</svg>
