<svg width="35" height="36" viewBox="0 0 35 36" fill="none" xmlns="http://www.w3.org/2000/svg">
<path d="M17.855 4.5C25.5071 4.5 31.71 10.7029 31.71 18.355C31.71 26.0071 25.5071 32.21 17.855 32.21C10.2029 32.21 4 26.0071 4 18.355C4 10.7029 10.2029 4.5 17.855 4.5ZM17.855 10.042C17.4875 10.042 17.1351 10.188 16.8753 10.4478C16.6155 10.7076 16.4695 11.06 16.4695 11.4275V18.355C16.4696 18.7224 16.6156 19.0748 16.8755 19.3345L21.032 23.491C21.2933 23.7434 21.6432 23.8831 22.0065 23.8799C22.3698 23.8768 22.7173 23.7311 22.9742 23.4742C23.2311 23.2173 23.3768 22.8698 23.3799 22.5065C23.3831 22.1432 23.2434 21.7933 22.991 21.532L19.2405 17.7814V11.4275C19.2405 11.06 19.0945 10.7076 18.8347 10.4478C18.5749 10.188 18.2225 10.042 17.855 10.042Z" fill="black"/>
</svg>
