<svg width="36" height="36" viewBox="0 0 36 36" fill="none" xmlns="http://www.w3.org/2000/svg">
<path d="M18.355 4.5C18.6175 4.5 18.8692 4.60427 19.0548 4.78986C19.2404 4.97545 19.3446 5.22717 19.3446 5.48964V7.46893C19.3446 7.7314 19.2404 7.98312 19.0548 8.16871C18.8692 8.35431 18.6175 8.45857 18.355 8.45857C18.0925 8.45857 17.8408 8.35431 17.6552 8.16871C17.4696 7.98312 17.3654 7.7314 17.3654 7.46893V5.48964C17.3654 5.22717 17.4696 4.97545 17.6552 4.78986C17.8408 4.60427 18.0925 4.5 18.355 4.5ZM18.355 24.2929C19.9298 24.2929 21.4401 23.6673 22.5537 22.5537C23.6673 21.4401 24.2929 19.9298 24.2929 18.355C24.2929 16.7802 23.6673 15.2699 22.5537 14.1563C21.4401 13.0427 19.9298 12.4171 18.355 12.4171C16.7802 12.4171 15.2699 13.0427 14.1563 14.1563C13.0427 15.2699 12.4171 16.7802 12.4171 18.355C12.4171 19.9298 13.0427 21.4401 14.1563 22.5537C15.2699 23.6673 16.7802 24.2929 18.355 24.2929ZM31.2204 19.3446C31.4828 19.3446 31.7345 19.2404 31.9201 19.0548C32.1057 18.8692 32.21 18.6175 32.21 18.355C32.21 18.0925 32.1057 17.8408 31.9201 17.6552C31.7345 17.4696 31.4828 17.3654 31.2204 17.3654H29.2411C28.9786 17.3654 28.7269 17.4696 28.5413 17.6552C28.3557 17.8408 28.2514 18.0925 28.2514 18.355C28.2514 18.6175 28.3557 18.8692 28.5413 19.0548C28.7269 19.2404 28.9786 19.3446 29.2411 19.3446H31.2204ZM18.355 28.2514C18.6175 28.2514 18.8692 28.3557 19.0548 28.5413C19.2404 28.7269 19.3446 28.9786 19.3446 29.2411V31.2204C19.3446 31.4828 19.2404 31.7345 19.0548 31.9201C18.8692 32.1057 18.6175 32.21 18.355 32.21C18.0925 32.21 17.8408 32.1057 17.6552 31.9201C17.4696 31.7345 17.3654 31.4828 17.3654 31.2204V29.2411C17.3654 28.9786 17.4696 28.7269 17.6552 28.5413C17.8408 28.3557 18.0925 28.2514 18.355 28.2514ZM7.46893 19.3446C7.7314 19.3446 7.98312 19.2404 8.16871 19.0548C8.35431 18.8692 8.45857 18.6175 8.45857 18.355C8.45857 18.0925 8.35431 17.8408 8.16871 17.6552C7.98312 17.4696 7.7314 17.3654 7.46893 17.3654H5.48964C5.22717 17.3654 4.97545 17.4696 4.78986 17.6552C4.60427 17.8408 4.5 18.0925 4.5 18.355C4.5 18.6175 4.60427 18.8692 4.78986 19.0548C4.97545 19.2404 5.22717 19.3446 5.48964 19.3446H7.46893ZM8.74755 8.74755C8.83948 8.65538 8.94868 8.58226 9.06892 8.53237C9.18915 8.48248 9.31804 8.4568 9.44821 8.4568C9.57839 8.4568 9.70728 8.48248 9.82751 8.53237C9.94774 8.58226 10.057 8.65538 10.1489 8.74755L12.1282 10.7268C12.2202 10.8188 12.2932 10.9281 12.343 11.0483C12.3928 11.1685 12.4184 11.2974 12.4184 11.4275C12.4184 11.5576 12.3928 11.6865 12.343 11.8067C12.2932 11.9269 12.2202 12.0362 12.1282 12.1282C12.0362 12.2202 11.9269 12.2932 11.8067 12.343C11.6865 12.3928 11.5576 12.4184 11.4275 12.4184C11.2974 12.4184 11.1685 12.3928 11.0483 12.343C10.9281 12.2932 10.8188 12.2202 10.7268 12.1282L8.74755 10.1489C8.65538 10.057 8.58226 9.94774 8.53237 9.82751C8.48248 9.70728 8.4568 9.57839 8.4568 9.44821C8.4568 9.31804 8.48248 9.18915 8.53237 9.06892C8.58226 8.94868 8.65538 8.83948 8.74755 8.74755ZM10.1489 27.9625C10.057 28.0545 9.94789 28.1275 9.82779 28.1773C9.70769 28.2272 9.57895 28.2529 9.44891 28.253C9.31888 28.2531 9.1901 28.2275 9.06993 28.1779C8.94976 28.1282 8.84055 28.0553 8.74854 27.9634C8.65652 27.8716 8.58351 27.7625 8.53366 27.6424C8.48382 27.5223 8.45811 27.3935 8.45802 27.2635C8.45793 27.1334 8.48345 27.0047 8.53313 26.8845C8.5828 26.7643 8.65566 26.6551 8.74755 26.5631L10.7268 24.5838C10.8187 24.4918 10.9278 24.4188 11.0479 24.3689C11.168 24.3191 11.2968 24.2934 11.4268 24.2933C11.5568 24.2932 11.6856 24.3187 11.8058 24.3684C11.926 24.4181 12.0352 24.4909 12.1272 24.5828C12.2192 24.6747 12.2922 24.7838 12.3421 24.9039C12.3919 25.024 12.4176 25.1528 12.4177 25.2828C12.4178 25.4128 12.3923 25.5416 12.3426 25.6618C12.2929 25.7819 12.22 25.8912 12.1282 25.9832L10.1489 27.9625ZM27.9625 8.74755C27.8705 8.65538 27.7613 8.58226 27.6411 8.53237C27.5208 8.48248 27.392 8.4568 27.2618 8.4568C27.1316 8.4568 27.0027 8.48248 26.8825 8.53237C26.7623 8.58226 26.653 8.65538 26.5611 8.74755L24.5818 10.7268C24.396 10.9127 24.2916 11.1647 24.2916 11.4275C24.2916 11.6903 24.396 11.9423 24.5818 12.1282C24.7677 12.314 25.0197 12.4184 25.2825 12.4184C25.5453 12.4184 25.7973 12.314 25.9832 12.1282L27.9625 10.1489C28.0546 10.057 28.1277 9.94774 28.1776 9.82751C28.2275 9.70728 28.2532 9.57839 28.2532 9.44821C28.2532 9.31804 28.2275 9.18915 28.1776 9.06892C28.1277 8.94868 28.0546 8.83948 27.9625 8.74755ZM26.5611 27.9625C26.7467 28.1483 26.9985 28.2528 27.2611 28.253C27.5237 28.2532 27.7756 28.149 27.9615 27.9634C28.1473 27.7779 28.2518 27.5261 28.252 27.2635C28.2522 27.0009 28.148 26.7489 27.9625 26.5631L25.9832 24.5838C25.7976 24.398 25.5458 24.2935 25.2832 24.2933C25.0206 24.2931 24.7686 24.3973 24.5828 24.5828C24.397 24.7684 24.2925 25.0202 24.2923 25.2828C24.2921 25.5454 24.3963 25.7973 24.5818 25.9832L26.5611 27.9625Z" fill="black"/>
</svg>
