<svg width="35" height="36" viewBox="0 0 35 36" fill="none" xmlns="http://www.w3.org/2000/svg">
<path d="M17.855 4.5C25.5071 4.5 31.71 10.7029 31.71 18.355C31.71 26.0071 25.5071 32.21 17.855 32.21C10.2029 32.21 4 26.0071 4 18.355C4 10.7029 10.2029 4.5 17.855 4.5ZM17.855 7.271C14.9153 7.271 12.0961 8.43878 10.0174 10.5174C7.93878 12.5961 6.771 15.4153 6.771 18.355C6.771 21.2947 7.93878 24.1139 10.0174 26.1926C12.0961 28.2712 14.9153 29.439 17.855 29.439C20.7947 29.439 23.6139 28.2712 25.6926 26.1926C27.7712 24.1139 28.939 21.2947 28.939 18.355C28.939 15.4153 27.7712 12.5961 25.6926 10.5174C23.6139 8.43878 20.7947 7.271 17.855 7.271ZM17.855 10.042C18.1944 10.042 18.5219 10.1666 18.7755 10.3921C19.0291 10.6176 19.1911 10.9284 19.2308 11.2654L19.2405 11.4275V17.7814L22.9911 21.532C23.2395 21.7813 23.3838 22.1158 23.3945 22.4677C23.4053 22.8195 23.2817 23.1623 23.0489 23.4263C22.8161 23.6903 22.4915 23.8559 22.1411 23.8892C21.7907 23.9226 21.4407 23.8214 21.1622 23.606L21.032 23.491L16.8755 19.3345C16.6601 19.119 16.5218 18.8385 16.482 18.5365L16.4695 18.355V11.4275C16.4695 11.06 16.6155 10.7076 16.8753 10.4478C17.1351 10.188 17.4875 10.042 17.855 10.042Z" fill="black"/>
</svg>
